<mxfile host="Electron" agent="Mozilla/5.0 (X11; Linux x86_64) AppleWebKit/537.36 (KHTML, like Gecko) draw.io/25.0.1 Chrome/128.0.6613.186 Electron/32.2.6 Safari/537.36" version="25.0.1">
  <diagram name="Page-1" id="CeZpkGh58d5hwhXqCsuH">
    <mxGraphModel dx="1424" dy="334" grid="1" gridSize="10" guides="1" tooltips="1" connect="1" arrows="1" fold="1" page="1" pageScale="1" pageWidth="850" pageHeight="1100" math="0" shadow="0">
      <root>
        <mxCell id="0" />
        <mxCell id="1" parent="0" />
        <mxCell id="dSF_r19liET6p1RPj9QD-1" value="&lt;font color=&quot;#ffffff&quot; style=&quot;font-size: 31px;&quot;&gt;LANGUAGE&lt;/font&gt;" style="rounded=1;whiteSpace=wrap;html=1;fillColor=#402000;strokeWidth=3;" parent="1" vertex="1">
          <mxGeometry y="120" width="440" height="70" as="geometry" />
        </mxCell>
        <mxCell id="dSF_r19liET6p1RPj9QD-3" value="" style="rounded=1;whiteSpace=wrap;html=1;fillColor=#402000;strokeWidth=3;movable=1;resizable=1;rotatable=1;deletable=1;editable=1;locked=0;connectable=1;" parent="1" vertex="1">
          <mxGeometry y="190" width="440" height="70" as="geometry" />
        </mxCell>
        <mxCell id="dSF_r19liET6p1RPj9QD-4" value="Meta" style="rounded=1;whiteSpace=wrap;html=1;fillColor=#0068E1;movable=1;resizable=1;rotatable=1;deletable=1;editable=1;locked=0;connectable=1;" parent="1" vertex="1">
          <mxGeometry x="10" y="195" width="140" height="60" as="geometry" />
        </mxCell>
        <mxCell id="dSF_r19liET6p1RPj9QD-7" value="Object" style="rounded=1;whiteSpace=wrap;html=1;fillColor=#00C78A;movable=1;resizable=1;rotatable=1;deletable=1;editable=1;locked=0;connectable=1;" parent="1" vertex="1">
          <mxGeometry x="150" y="195" width="140" height="60" as="geometry" />
        </mxCell>
        <mxCell id="dSF_r19liET6p1RPj9QD-8" value="Rhythm" style="rounded=1;whiteSpace=wrap;html=1;fillColor=#9336E1;movable=1;resizable=1;rotatable=1;deletable=1;editable=1;locked=0;connectable=1;" parent="1" vertex="1">
          <mxGeometry x="290" y="195" width="140" height="60" as="geometry" />
        </mxCell>
        <mxCell id="dSF_r19liET6p1RPj9QD-9" value="" style="rounded=1;whiteSpace=wrap;html=1;fillColor=#402000;strokeWidth=3;movable=1;resizable=1;rotatable=1;deletable=1;editable=1;locked=0;connectable=1;" parent="1" vertex="1">
          <mxGeometry y="260" width="440" height="70" as="geometry" />
        </mxCell>
        <mxCell id="dSF_r19liET6p1RPj9QD-30" value="" style="rounded=1;whiteSpace=wrap;html=1;fillColor=#402000;strokeWidth=3;movable=1;resizable=1;rotatable=1;deletable=1;editable=1;locked=0;connectable=1;" parent="1" vertex="1">
          <mxGeometry y="330" width="440" height="70" as="geometry" />
        </mxCell>
        <mxCell id="dSF_r19liET6p1RPj9QD-31" value="" style="group" parent="1" vertex="1" connectable="0">
          <mxGeometry x="150" y="265" width="140" height="60" as="geometry" />
        </mxCell>
        <mxCell id="dSF_r19liET6p1RPj9QD-18" value="" style="rounded=1;whiteSpace=wrap;html=1;fillColor=#00C78A;movable=1;resizable=1;rotatable=1;deletable=1;editable=1;locked=0;connectable=1;" parent="dSF_r19liET6p1RPj9QD-31" vertex="1">
          <mxGeometry width="140" height="60" as="geometry" />
        </mxCell>
        <mxCell id="dSF_r19liET6p1RPj9QD-19" value="&lt;font style=&quot;font-size: 7px;&quot;&gt;Responsive&lt;/font&gt;" style="rounded=1;whiteSpace=wrap;html=1;fillColor=#008C5D;" parent="dSF_r19liET6p1RPj9QD-31" vertex="1">
          <mxGeometry x="7.5" y="2.5" width="42.5" height="52.5" as="geometry" />
        </mxCell>
        <mxCell id="dSF_r19liET6p1RPj9QD-21" value="&lt;font style=&quot;font-size: 7px;&quot;&gt;Internal&lt;/font&gt;" style="rounded=1;whiteSpace=wrap;html=1;fillColor=#008C5D;" parent="dSF_r19liET6p1RPj9QD-31" vertex="1">
          <mxGeometry x="50" y="2.5" width="42.5" height="52.5" as="geometry" />
        </mxCell>
        <mxCell id="dSF_r19liET6p1RPj9QD-22" value="&lt;font style=&quot;font-size: 7px;&quot;&gt;Tangential&lt;/font&gt;" style="rounded=1;whiteSpace=wrap;html=1;fillColor=#008C5D;" parent="dSF_r19liET6p1RPj9QD-31" vertex="1">
          <mxGeometry x="92.5" y="2.5" width="42.5" height="52.5" as="geometry" />
        </mxCell>
        <mxCell id="dSF_r19liET6p1RPj9QD-32" value="" style="group" parent="1" vertex="1" connectable="0">
          <mxGeometry x="10" y="265" width="140" height="60" as="geometry" />
        </mxCell>
        <mxCell id="dSF_r19liET6p1RPj9QD-10" value="" style="rounded=1;whiteSpace=wrap;html=1;fillColor=#0068E1;movable=1;resizable=1;rotatable=1;deletable=1;editable=1;locked=0;connectable=1;" parent="dSF_r19liET6p1RPj9QD-32" vertex="1">
          <mxGeometry width="140" height="60" as="geometry" />
        </mxCell>
        <mxCell id="dSF_r19liET6p1RPj9QD-11" value="&lt;font style=&quot;font-size: 8px;&quot;&gt;Time&lt;/font&gt;" style="rounded=1;whiteSpace=wrap;html=1;fillColor=#00499F;" parent="dSF_r19liET6p1RPj9QD-32" vertex="1">
          <mxGeometry x="10" y="5" width="40" height="20" as="geometry" />
        </mxCell>
        <mxCell id="dSF_r19liET6p1RPj9QD-12" value="&lt;font style=&quot;font-size: 8px;&quot;&gt;Aware&lt;/font&gt;" style="rounded=1;whiteSpace=wrap;html=1;fillColor=#00499F;" parent="dSF_r19liET6p1RPj9QD-32" vertex="1">
          <mxGeometry x="50" y="5" width="40" height="20" as="geometry" />
        </mxCell>
        <mxCell id="dSF_r19liET6p1RPj9QD-13" value="&lt;font style=&quot;font-size: 8px;&quot;&gt;Emote&lt;/font&gt;" style="rounded=1;whiteSpace=wrap;html=1;fillColor=#00499F;" parent="dSF_r19liET6p1RPj9QD-32" vertex="1">
          <mxGeometry x="90" y="5" width="40" height="20" as="geometry" />
        </mxCell>
        <mxCell id="dSF_r19liET6p1RPj9QD-14" value="&lt;font style=&quot;font-size: 8px;&quot;&gt;Com&lt;/font&gt;" style="rounded=1;whiteSpace=wrap;html=1;fillColor=#00499F;" parent="dSF_r19liET6p1RPj9QD-32" vertex="1">
          <mxGeometry x="10" y="35" width="30" height="20" as="geometry" />
        </mxCell>
        <mxCell id="dSF_r19liET6p1RPj9QD-15" value="&lt;font style=&quot;font-size: 8px;&quot;&gt;Cla&lt;/font&gt;" style="rounded=1;whiteSpace=wrap;html=1;fillColor=#00499F;" parent="dSF_r19liET6p1RPj9QD-32" vertex="1">
          <mxGeometry x="40" y="35" width="30" height="20" as="geometry" />
        </mxCell>
        <mxCell id="dSF_r19liET6p1RPj9QD-16" value="&lt;font style=&quot;font-size: 8px;&quot;&gt;Cert&lt;/font&gt;" style="rounded=1;whiteSpace=wrap;html=1;fillColor=#00499F;" parent="dSF_r19liET6p1RPj9QD-32" vertex="1">
          <mxGeometry x="70" y="35" width="30" height="20" as="geometry" />
        </mxCell>
        <mxCell id="dSF_r19liET6p1RPj9QD-17" value="&lt;font style=&quot;font-size: 8px;&quot;&gt;Con&lt;/font&gt;" style="rounded=1;whiteSpace=wrap;html=1;fillColor=#00499F;" parent="dSF_r19liET6p1RPj9QD-32" vertex="1">
          <mxGeometry x="100" y="35" width="30" height="20" as="geometry" />
        </mxCell>
        <mxCell id="dSF_r19liET6p1RPj9QD-33" value="" style="group" parent="1" vertex="1" connectable="0">
          <mxGeometry x="290" y="263.75" width="140" height="60" as="geometry" />
        </mxCell>
        <mxCell id="dSF_r19liET6p1RPj9QD-23" value="" style="rounded=1;whiteSpace=wrap;html=1;fillColor=#9336E1;movable=1;resizable=1;rotatable=1;deletable=1;editable=1;locked=0;connectable=1;" parent="dSF_r19liET6p1RPj9QD-33" vertex="1">
          <mxGeometry width="140" height="60" as="geometry" />
        </mxCell>
        <mxCell id="dSF_r19liET6p1RPj9QD-24" value="&lt;font style=&quot;font-size: 8px;&quot;&gt;High Octave&lt;/font&gt;" style="rounded=1;whiteSpace=wrap;html=1;fillColor=#6200B3;" parent="dSF_r19liET6p1RPj9QD-33" vertex="1">
          <mxGeometry x="10" y="6.25" width="60" height="20" as="geometry" />
        </mxCell>
        <mxCell id="dSF_r19liET6p1RPj9QD-25" value="&lt;font style=&quot;font-size: 8px;&quot;&gt;Low Octave&lt;/font&gt;" style="rounded=1;whiteSpace=wrap;html=1;fillColor=#6200B3;" parent="dSF_r19liET6p1RPj9QD-33" vertex="1">
          <mxGeometry x="70" y="6.25" width="60" height="20" as="geometry" />
        </mxCell>
        <mxCell id="dSF_r19liET6p1RPj9QD-54" value="&lt;font style=&quot;font-size: 8px;&quot;&gt;Com&lt;/font&gt;" style="rounded=1;whiteSpace=wrap;html=1;fillColor=#6200B3;" parent="dSF_r19liET6p1RPj9QD-33" vertex="1">
          <mxGeometry x="10" y="36.25" width="30" height="20" as="geometry" />
        </mxCell>
        <mxCell id="dSF_r19liET6p1RPj9QD-55" value="&lt;font style=&quot;font-size: 8px;&quot;&gt;Cla&lt;/font&gt;" style="rounded=1;whiteSpace=wrap;html=1;fillColor=#6200B3;" parent="dSF_r19liET6p1RPj9QD-33" vertex="1">
          <mxGeometry x="40" y="36.25" width="30" height="20" as="geometry" />
        </mxCell>
        <mxCell id="dSF_r19liET6p1RPj9QD-56" value="&lt;font style=&quot;font-size: 8px;&quot;&gt;Cert&lt;/font&gt;" style="rounded=1;whiteSpace=wrap;html=1;fillColor=#6200B3;" parent="dSF_r19liET6p1RPj9QD-33" vertex="1">
          <mxGeometry x="70" y="36.25" width="30" height="20" as="geometry" />
        </mxCell>
        <mxCell id="dSF_r19liET6p1RPj9QD-57" value="&lt;font style=&quot;font-size: 8px;&quot;&gt;Con&lt;/font&gt;" style="rounded=1;whiteSpace=wrap;html=1;fillColor=#6200B3;" parent="dSF_r19liET6p1RPj9QD-33" vertex="1">
          <mxGeometry x="100" y="36.25" width="30" height="20" as="geometry" />
        </mxCell>
        <mxCell id="dSF_r19liET6p1RPj9QD-34" value="" style="group" parent="1" vertex="1" connectable="0">
          <mxGeometry x="150" y="335" width="140" height="60" as="geometry" />
        </mxCell>
        <mxCell id="dSF_r19liET6p1RPj9QD-35" value="" style="rounded=1;whiteSpace=wrap;html=1;fillColor=#00C78A;movable=1;resizable=1;rotatable=1;deletable=1;editable=1;locked=0;connectable=1;" parent="dSF_r19liET6p1RPj9QD-34" vertex="1">
          <mxGeometry width="140" height="60" as="geometry" />
        </mxCell>
        <mxCell id="dSF_r19liET6p1RPj9QD-36" value="&lt;font style=&quot;font-size: 7px;&quot;&gt;Responsive&lt;/font&gt;" style="rounded=1;whiteSpace=wrap;html=1;fillColor=#008C5D;" parent="dSF_r19liET6p1RPj9QD-34" vertex="1">
          <mxGeometry x="7.5" y="2.5" width="42.5" height="52.5" as="geometry" />
        </mxCell>
        <mxCell id="dSF_r19liET6p1RPj9QD-37" value="" style="rounded=1;whiteSpace=wrap;html=1;fillColor=#008C5D;" parent="dSF_r19liET6p1RPj9QD-34" vertex="1">
          <mxGeometry x="50" y="2.5" width="42.5" height="52.5" as="geometry" />
        </mxCell>
        <mxCell id="dSF_r19liET6p1RPj9QD-38" value="" style="rounded=1;whiteSpace=wrap;html=1;fillColor=#008C5D;" parent="dSF_r19liET6p1RPj9QD-34" vertex="1">
          <mxGeometry x="92.5" y="2.5" width="42.5" height="52.5" as="geometry" />
        </mxCell>
        <mxCell id="dSF_r19liET6p1RPj9QD-39" value="&lt;span style=&quot;color: rgb(255, 255, 255); font-size: 6px;&quot;&gt;Propositional&lt;/span&gt;" style="rounded=1;whiteSpace=wrap;html=1;fillColor=#004A2B;" parent="dSF_r19liET6p1RPj9QD-34" vertex="1">
          <mxGeometry x="51.88" y="15" width="38.75" height="15" as="geometry" />
        </mxCell>
        <mxCell id="dSF_r19liET6p1RPj9QD-40" value="&lt;font color=&quot;#ffffff&quot; style=&quot;font-size: 6px;&quot;&gt;Extensional&lt;/font&gt;" style="rounded=1;whiteSpace=wrap;html=1;fillColor=#004A2B;" parent="dSF_r19liET6p1RPj9QD-34" vertex="1">
          <mxGeometry x="51.870000000000005" y="30" width="38.75" height="15" as="geometry" />
        </mxCell>
        <mxCell id="dSF_r19liET6p1RPj9QD-48" value="&lt;span style=&quot;color: rgb(255, 255, 255); font-size: 6px;&quot;&gt;Conditional&lt;/span&gt;" style="rounded=1;whiteSpace=wrap;html=1;fillColor=#004A2B;" parent="dSF_r19liET6p1RPj9QD-34" vertex="1">
          <mxGeometry x="94.38" y="5" width="38.75" height="15" as="geometry" />
        </mxCell>
        <mxCell id="dSF_r19liET6p1RPj9QD-49" value="&lt;font color=&quot;#ffffff&quot;&gt;&lt;span style=&quot;font-size: 6px;&quot;&gt;Metaphorical&lt;/span&gt;&lt;/font&gt;" style="rounded=1;whiteSpace=wrap;html=1;fillColor=#004A2B;" parent="dSF_r19liET6p1RPj9QD-34" vertex="1">
          <mxGeometry x="94.38" y="20" width="38.75" height="15" as="geometry" />
        </mxCell>
        <mxCell id="dSF_r19liET6p1RPj9QD-50" value="&lt;span style=&quot;color: rgb(255, 255, 255); font-size: 6px;&quot;&gt;Referential&lt;/span&gt;" style="rounded=1;whiteSpace=wrap;html=1;fillColor=#004A2B;" parent="dSF_r19liET6p1RPj9QD-34" vertex="1">
          <mxGeometry x="94.38" y="35" width="38.75" height="15" as="geometry" />
        </mxCell>
        <mxCell id="dSF_r19liET6p1RPj9QD-52" value="&lt;font style=&quot;font-size: 10px;&quot;&gt;Voice&lt;/font&gt;" style="rounded=1;whiteSpace=wrap;html=1;fillColor=#8c6940;movable=1;resizable=1;rotatable=1;deletable=1;editable=1;locked=0;connectable=1;align=left;" parent="1" vertex="1">
          <mxGeometry x="10" y="335" width="140" height="60" as="geometry" />
        </mxCell>
        <mxCell id="dSF_r19liET6p1RPj9QD-53" value="&lt;font style=&quot;font-size: 10px;&quot;&gt;Word&lt;/font&gt;" style="rounded=1;whiteSpace=wrap;html=1;fillColor=#8c6940;movable=1;resizable=1;rotatable=1;deletable=1;editable=1;locked=0;connectable=1;align=right;" parent="1" vertex="1">
          <mxGeometry x="290" y="335" width="140" height="60" as="geometry" />
        </mxCell>
        <mxCell id="dSF_r19liET6p1RPj9QD-58" value="" style="rounded=1;whiteSpace=wrap;html=1;fillColor=#99FFFF;" parent="1" vertex="1">
          <mxGeometry x="50" y="335" width="10" height="60" as="geometry" />
        </mxCell>
        <mxCell id="dSF_r19liET6p1RPj9QD-59" value="" style="rounded=1;whiteSpace=wrap;html=1;fillColor=#994C00;" parent="1" vertex="1">
          <mxGeometry x="60" y="335" width="10" height="60" as="geometry" />
        </mxCell>
        <mxCell id="dSF_r19liET6p1RPj9QD-60" value="" style="rounded=1;whiteSpace=wrap;html=1;fillColor=#00CC00;" parent="1" vertex="1">
          <mxGeometry x="70" y="335" width="10" height="60" as="geometry" />
        </mxCell>
        <mxCell id="dSF_r19liET6p1RPj9QD-61" value="" style="rounded=1;whiteSpace=wrap;html=1;fillColor=#B266FF;" parent="1" vertex="1">
          <mxGeometry x="80" y="335" width="10" height="60" as="geometry" />
        </mxCell>
        <mxCell id="dSF_r19liET6p1RPj9QD-62" value="" style="rounded=1;whiteSpace=wrap;html=1;fillColor=#FF0000;" parent="1" vertex="1">
          <mxGeometry x="90" y="335" width="10" height="60" as="geometry" />
        </mxCell>
        <mxCell id="dSF_r19liET6p1RPj9QD-63" value="" style="rounded=1;whiteSpace=wrap;html=1;fillColor=#00CC66;" parent="1" vertex="1">
          <mxGeometry x="100" y="335" width="10" height="60" as="geometry" />
        </mxCell>
        <mxCell id="dSF_r19liET6p1RPj9QD-64" value="" style="rounded=1;whiteSpace=wrap;html=1;fillColor=#FFFF00;" parent="1" vertex="1">
          <mxGeometry x="110" y="335" width="10" height="60" as="geometry" />
        </mxCell>
        <mxCell id="dSF_r19liET6p1RPj9QD-65" value="" style="rounded=1;whiteSpace=wrap;html=1;fillColor=#E6E6E6;" parent="1" vertex="1">
          <mxGeometry x="120" y="335" width="10" height="60" as="geometry" />
        </mxCell>
        <mxCell id="dSF_r19liET6p1RPj9QD-66" value="&lt;div style=&quot;color: rgb(204, 204, 204); background-color: rgb(31, 31, 31); font-family: &amp;quot;Droid Sans Mono&amp;quot;, &amp;quot;monospace&amp;quot;, monospace; line-height: 19px; white-space: pre;&quot;&gt;&lt;font style=&quot;font-size: 10px;&quot;&gt;🧠&lt;/font&gt;&lt;/div&gt;" style="rounded=1;whiteSpace=wrap;html=1;fillColor=#3333FF;" parent="1" vertex="1">
          <mxGeometry x="300" y="335" width="20" height="60" as="geometry" />
        </mxCell>
        <mxCell id="dSF_r19liET6p1RPj9QD-67" value="&lt;div style=&quot;color: rgb(204, 204, 204); background-color: rgb(31, 31, 31); font-family: &amp;quot;Droid Sans Mono&amp;quot;, &amp;quot;monospace&amp;quot;, monospace; line-height: 19px; white-space: pre;&quot;&gt;&lt;font style=&quot;font-size: 10px;&quot;&gt;💾&lt;/font&gt;&lt;/div&gt;" style="rounded=1;whiteSpace=wrap;html=1;fillColor=#994C00;" parent="1" vertex="1">
          <mxGeometry x="320" y="335" width="20" height="60" as="geometry" />
        </mxCell>
        <mxCell id="dSF_r19liET6p1RPj9QD-68" value="&lt;div style=&quot;color: rgb(204, 204, 204); background-color: rgb(31, 31, 31); font-family: &amp;quot;Droid Sans Mono&amp;quot;, &amp;quot;monospace&amp;quot;, monospace; line-height: 19px; white-space: pre;&quot;&gt;&lt;font style=&quot;font-size: 10px;&quot;&gt;🌐&lt;/font&gt;&lt;/div&gt;" style="rounded=1;whiteSpace=wrap;html=1;fillColor=#00CC00;" parent="1" vertex="1">
          <mxGeometry x="340" y="335" width="20" height="60" as="geometry" />
        </mxCell>
        <mxCell id="dSF_r19liET6p1RPj9QD-69" value="&lt;div style=&quot;color: rgb(204, 204, 204); background-color: rgb(31, 31, 31); font-family: &amp;quot;Droid Sans Mono&amp;quot;, &amp;quot;monospace&amp;quot;, monospace; line-height: 19px; white-space: pre;&quot;&gt;&lt;font style=&quot;font-size: 10px;&quot;&gt;🪞&lt;/font&gt;&lt;/div&gt;" style="rounded=1;whiteSpace=wrap;html=1;fillColor=#FFFF00;" parent="1" vertex="1">
          <mxGeometry x="360" y="335" width="20" height="60" as="geometry" />
        </mxCell>
        <mxCell id="dSF_r19liET6p1RPj9QD-70" value="&lt;div style=&quot;color: rgb(204, 204, 204); background-color: rgb(31, 31, 31); font-family: &amp;quot;Droid Sans Mono&amp;quot;, &amp;quot;monospace&amp;quot;, monospace; line-height: 19px; white-space: pre;&quot;&gt;&lt;font style=&quot;font-size: 10px;&quot;&gt;🫀&lt;/font&gt;&lt;/div&gt;" style="rounded=1;whiteSpace=wrap;html=1;fillColor=#FF0000;" parent="1" vertex="1">
          <mxGeometry x="380" y="335" width="20" height="60" as="geometry" />
        </mxCell>
      </root>
    </mxGraphModel>
  </diagram>
</mxfile>
